<svg id="Layer_1" data-name="Layer 1" xmlns="http://www.w3.org/2000/svg" viewBox="0 0 423.14 411.62"><defs><style>.cls-1{fill:#fff;}.cls-2{fill:none;}</style></defs><title>V_CLEAR</title><path class="cls-1" d="M367.3,89.23v48c-5,1.16-10,2.51-14.95,3.41-6,1.09-9.38,4.83-11.27,11.4-10.61,36.93-21.43,73.78-32.16,110.67q-16.21,55.78-32.37,111.6c-.82,2.86-2,4.05-4.76,4q-42.6-.18-85.22,0c-2.84,0-3.91-1.27-4.71-4.11Q151,265.16,120,156.08c-2.48-8.8-7.26-13.89-15-15.75a96.51,96.51,0,0,1-9.48-2.51c-1.06-.38-2.56-1.92-2.57-2.94-.17-15.14-.12-30.27-.12-45.76h138v25.81c0,6-.14,11.95.06,17.92.1,3.05-.89,4.34-3.45,4.82-3.76.7-7.47,1.75-11.21,2.59C208.55,142,206,145.88,208,154.68c3.12,13.89,6.73,27.65,10.19,41.45q10.62,42.32,21.3,84.63c.3,1.21.71,2.4,1.51,5,.86-2.74,1.41-4.25,1.81-5.8q15.75-60.53,31.46-121.06a50.06,50.06,0,0,0,1.39-7.08c.69-6.37-1.79-10.15-7.32-11.42-4.43-1-8.9-1.83-13.27-3.11-1.12-.33-2.73-2.06-2.74-3.17-.18-14.83-.12-29.67-.12-44.91Z" transform="translate(-18.5 -19.83)"/><path class="cls-1" d="M322.72,33.33H137.42A105.42,105.42,0,0,0,32,138.75V312.53A105.42,105.42,0,0,0,137.42,418h185.3A105.42,105.42,0,0,0,428.14,312.53V138.75A105.42,105.42,0,0,0,322.72,33.33Zm91.92,279.2a92,92,0,0,1-91.92,91.92H137.42A92,92,0,0,1,45.5,312.53V138.75a92,92,0,0,1,91.92-91.92h185.3a92,92,0,0,1,91.92,91.92Z" transform="translate(-18.5 -19.83)"/><path d="M322.72,19.83H137.42A119.06,119.06,0,0,0,18.5,138.75V312.53A119.06,119.06,0,0,0,137.42,431.45h185.3A119.06,119.06,0,0,0,441.64,312.53V138.75A119.06,119.06,0,0,0,322.72,19.83Zm91.92,292.7a92,92,0,0,1-91.92,91.92H137.42A92,92,0,0,1,45.5,312.53V138.75a92,92,0,0,1,91.92-91.92h185.3a92,92,0,0,1,91.92,91.92Z" transform="translate(-18.5 -19.83)"/><path class="cls-2" d="M322.72,46.83H137.42A92,92,0,0,0,45.5,138.75V312.53a92,92,0,0,0,91.92,91.92h185.3a92,92,0,0,0,91.92-91.92V138.75A92,92,0,0,0,322.72,46.83Zm44.58,90.43c-5,1.16-10,2.51-14.95,3.41-6,1.09-9.38,4.83-11.27,11.4-10.61,36.93-21.43,73.78-32.16,110.67q-16.21,55.78-32.37,111.6c-.82,2.86-2,4.05-4.76,4q-42.6-.18-85.22,0c-2.84,0-3.91-1.27-4.71-4.11Q151,265.16,120,156.08c-2.48-8.8-7.26-13.89-15-15.75a96.51,96.51,0,0,1-9.48-2.51c-1.06-.38-2.56-1.92-2.57-2.94-.17-15.14-.12-30.27-.12-45.76h138v25.81c0,6-.14,11.95.06,17.92.1,3.05-.89,4.34-3.45,4.82-3.76.7-7.47,1.75-11.21,2.59C208.55,142,206,145.88,208,154.68c3.12,13.89,6.73,27.65,10.19,41.45q10.62,42.32,21.3,84.63c.3,1.21.71,2.4,1.51,5,.86-2.74,1.41-4.25,1.81-5.8q15.75-60.53,31.46-121.06a50.06,50.06,0,0,0,1.39-7.08c.69-6.37-1.79-10.15-7.32-11.42-4.43-1-8.9-1.83-13.27-3.11-1.12-.33-2.73-2.06-2.74-3.17-.18-14.83-.12-29.67-.12-44.91H367.3Z" transform="translate(-18.5 -19.83)"/><path d="M367.3,89.23v48c-5,1.16-10,2.51-14.95,3.41-6,1.09-9.38,4.83-11.27,11.4-10.61,36.93-21.43,73.78-32.16,110.67q-16.21,55.78-32.37,111.6c-.82,2.86-2,4.05-4.76,4q-42.6-.18-85.22,0c-2.84,0-3.91-1.27-4.71-4.11Q151,265.16,120,156.08c-2.48-8.8-7.26-13.89-15-15.75a96.51,96.51,0,0,1-9.48-2.51c-1.06-.38-2.56-1.92-2.57-2.94-.17-15.14-.12-30.27-.12-45.76h138v25.81c0,6-.14,11.95.06,17.92.1,3.05-.89,4.34-3.45,4.82-3.76.7-7.47,1.75-11.21,2.59C208.55,142,206,145.88,208,154.68c3.12,13.89,6.73,27.65,10.19,41.45q9.28,37,18.62,74,1.35,5.31,2.68,10.64c.3,1.21.71,2.4,1.51,5,.86-2.74,1.41-4.25,1.81-5.8q15.75-60.53,31.46-121.06a50.06,50.06,0,0,0,1.39-7.08c.69-6.37-1.79-10.15-7.32-11.42-4.43-1-8.9-1.83-13.27-3.11-1.12-.33-2.73-2.06-2.74-3.17-.18-14.83-.12-29.67-.12-44.91Z" transform="translate(-18.5 -19.83)"/></svg>