<?xml version="1.0" encoding="UTF-8"?>
<svg width="424px" height="412px" viewBox="0 0 424 412" version="1.1" xmlns="http://www.w3.org/2000/svg" xmlns:xlink="http://www.w3.org/1999/xlink">
    <title>v-logo-fill</title>
    <defs></defs>
    <g id="Page-1" stroke="none" stroke-width="1" fill="none" fill-rule="evenodd">
        <g id="v-logo-fill">
            <path d="M304.22,13.5 L118.92,13.5 C60.7020467,13.4999997 13.5055225,60.692047 13.5,118.91 L13.5,292.7 C13.4867351,320.667784 24.587597,347.494621 44.3591199,367.275521 C64.1306428,387.056422 90.9522124,398.170003 118.92,398.17 L304.22,398.17 C332.191253,398.17531 359.017962,387.064071 378.793811,367.282595 C398.56966,347.501119 409.673267,320.67125 409.66,292.7 L409.66,118.91 C409.657348,90.9491447 398.546714,64.134693 378.77259,44.3661959 C358.998467,24.5976987 332.180855,13.4946952 304.22,13.5 L304.22,13.5 Z M396.14,292.7 C396.095891,343.447732 354.967732,384.575891 304.22,384.62 L118.92,384.62 C68.1722677,384.575891 27.0441093,343.447732 27,292.7 L27,118.91 C27.0496216,68.166173 68.1761679,27.0441008 118.92,27 L304.22,27 C354.963832,27.0441008 396.090378,68.166173 396.14,118.91 L396.14,292.7 Z" id="Shape" fill="#FFFFFF" fill-rule="nonzero"></path>
            <path d="M304.22,7.10542736e-15 L118.92,7.10542736e-15 C53.2644851,0.0441194052 0.0496406189,53.2544891 0,118.91 L0,292.7 C0.0771460627,358.345721 53.274279,411.542854 118.92,411.62 L304.22,411.62 C369.865721,411.542854 423.062854,358.345721 423.14,292.7 L423.14,118.91 C423.090359,53.2544891 369.875515,0.0441194052 304.22,0 L304.22,7.10542736e-15 Z M396.14,292.7 C396.095891,343.447732 354.967732,384.575891 304.22,384.62 L118.92,384.62 C68.1722677,384.575891 27.0441093,343.447732 27,292.7 L27,118.91 C27.0496216,68.166173 68.1761679,27.0441008 118.92,27 L304.22,27 C354.963832,27.0441008 396.090378,68.166173 396.14,118.91 L396.14,292.7 Z" id="Shape" fill="#808000" fill-rule="nonzero"></path>
            <path d="M304.22,27 L118.92,27 C68.1761679,27.0441008 27.0496216,68.166173 27,118.91 L27,292.7 C27.0441093,343.447732 68.1722677,384.575891 118.92,384.62 L304.22,384.62 C354.967732,384.575891 396.095891,343.447732 396.14,292.7 L396.14,118.91 C396.090378,68.166173 354.963832,27.0441008 304.22,27 Z M348.8,117.42 C343.8,118.59 338.8,119.93 333.85,120.84 C327.85,121.92 324.47,125.67 322.58,132.24 C311.97,169.17 301.15,206.02 290.42,242.9 C279.606667,280.086667 268.816667,317.29 258.05,354.51 C257.23,357.37 256.05,358.51 253.29,358.51 C224.89,358.39 196.483333,358.39 168.07,358.51 C165.23,358.51 164.16,357.23 163.36,354.39 C142.76,281.656667 122.146667,208.93 101.52,136.21 C99.04,127.4 94.26,122.31 86.52,120.45 C83.3185551,119.7826 80.1542284,118.948125 77.04,117.95 C75.98,117.57 74.48,116.03 74.47,115 C74.3,99.87 74.35,84.73 74.35,69.25 L212.35,69.25 L212.35,95.06 C212.35,101.06 212.21,107.01 212.41,112.97 C212.51,116.03 211.52,117.32 208.96,117.8 C205.2,118.5 201.49,119.55 197.75,120.38 C190.07,122.11 187.5,126.01 189.48,134.8 C192.6,148.7 196.21,162.46 199.67,176.25 C206.75,204.47 213.85,232.68 220.97,260.88 C221.27,262.1 221.68,263.28 222.48,265.88 C223.34,263.13 223.89,261.63 224.29,260.07 C234.79,219.716667 245.276667,179.363333 255.75,139.01 C256.383951,136.690108 256.848507,134.327221 257.14,131.94 C257.83,125.57 255.35,121.79 249.82,120.52 C245.39,119.52 240.92,118.68 236.55,117.4 C235.43,117.08 233.82,115.34 233.81,114.24 C233.66,99.47 233.66,84.63 233.66,69.4 L348.8,69.4 L348.8,117.42 Z" id="Shape" fill="#808000" fill-rule="nonzero"></path>
            <path d="M348.8,69.4 L348.8,117.4 C343.8,118.57 338.8,119.91 333.85,120.82 C327.85,121.9 324.47,125.65 322.58,132.22 C311.97,169.15 301.15,206 290.42,242.88 C279.606667,280.066667 268.816667,317.27 258.05,354.49 C257.23,357.35 256.05,358.49 253.29,358.49 C224.89,358.37 196.483333,358.37 168.07,358.49 C165.23,358.49 164.16,357.21 163.36,354.37 C142.76,281.636667 122.146667,208.91 101.52,136.19 C99.04,127.38 94.26,122.29 86.52,120.43 C83.3185551,119.7626 80.1542284,118.928125 77.04,117.93 C75.98,117.55 74.48,116.01 74.47,114.98 C74.3,99.85 74.35,84.71 74.35,69.23 L212.35,69.23 L212.35,95.04 C212.35,101.04 212.21,106.99 212.41,112.95 C212.51,116.01 211.52,117.3 208.96,117.78 C205.2,118.48 201.49,119.53 197.75,120.36 C190.07,122.09 187.5,125.99 189.48,134.78 C192.6,148.68 196.21,162.44 199.67,176.23 C206.75,204.45 213.85,232.66 220.97,260.86 C221.27,262.08 221.68,263.26 222.48,265.86 C223.34,263.11 223.89,261.61 224.29,260.05 C234.79,219.696667 245.276667,179.343333 255.75,138.99 C256.383951,136.670108 256.848507,134.307221 257.14,131.92 C257.83,125.55 255.35,121.77 249.82,120.5 C245.39,119.5 240.92,118.66 236.55,117.38 C235.43,117.06 233.82,115.32 233.81,114.22 C233.66,99.47 233.66,84.63 233.66,69.4 L348.8,69.4 Z" id="Shape"></path>
        </g>
    </g>
</svg>
