<svg id="Layer_1" data-name="Layer 1" xmlns="http://www.w3.org/2000/svg" viewBox="0 0 423.14 411.62"><defs><style>.cls-1{fill:#fff;}.cls-2{fill:none;}</style></defs><title>V_BLACK_CLEAR</title><path class="cls-1" d="M321.56,33.33H136.26A105.42,105.42,0,0,0,30.84,138.74V312.53A105.42,105.42,0,0,0,136.26,418h185.3A105.42,105.42,0,0,0,427,312.53V138.74A105.42,105.42,0,0,0,321.56,33.33Zm91.92,279.2a92,92,0,0,1-91.92,91.92H136.26a92,92,0,0,1-91.92-91.92V138.74a92,92,0,0,1,91.92-91.91h185.3a92,92,0,0,1,91.92,91.91Z" transform="translate(-17.34 -19.83)"/><path d="M321.56,19.83H136.26A119,119,0,0,0,17.34,138.74V312.53A119.06,119.06,0,0,0,136.26,431.45h185.3A119.06,119.06,0,0,0,440.48,312.53V138.74A119,119,0,0,0,321.56,19.83Zm91.92,292.7a92,92,0,0,1-91.92,91.92H136.26a92,92,0,0,1-91.92-91.92V138.74a92,92,0,0,1,91.92-91.91h185.3a92,92,0,0,1,91.92,91.91Z" transform="translate(-17.34 -19.83)"/><path d="M321.56,46.83H136.26a92,92,0,0,0-91.92,91.91V312.53a92,92,0,0,0,91.92,91.92h185.3a92,92,0,0,0,91.92-91.92V138.74A92,92,0,0,0,321.56,46.83Zm44.58,90.42c-5,1.17-10,2.51-14.95,3.42-6,1.08-9.38,4.83-11.27,11.4-10.61,36.93-21.43,73.78-32.16,110.66q-16.22,55.78-32.37,111.61c-.82,2.86-2,4-4.76,4q-42.6-.18-85.22,0c-2.84,0-3.91-1.28-4.71-4.12q-30.9-109.1-61.84-218.18c-2.48-8.81-7.26-13.9-15-15.76a93.74,93.74,0,0,1-9.48-2.5c-1.06-.38-2.56-1.92-2.57-2.95-.17-15.13-.12-30.27-.12-45.75h138v25.81c0,6-.14,11.95.06,17.91.1,3.06-.89,4.35-3.45,4.83-3.76.7-7.47,1.75-11.21,2.58-7.68,1.73-10.25,5.63-8.27,14.42,3.12,13.9,6.73,27.66,10.19,41.45q10.62,42.33,21.3,84.63c.3,1.22.71,2.4,1.51,5,.86-2.75,1.41-4.25,1.81-5.81q15.75-60.53,31.46-121.06a49.65,49.65,0,0,0,1.39-7.07c.69-6.37-1.79-10.15-7.32-11.42-4.43-1-8.9-1.84-13.27-3.12-1.12-.32-2.73-2.06-2.74-3.16C251,119.3,251,104.46,251,89.23H366.14Z" transform="translate(-17.34 -19.83)"/><path class="cls-2" d="M366.14,89.23v48c-5,1.17-10,2.51-14.95,3.42-6,1.08-9.38,4.83-11.27,11.4-10.61,36.93-21.43,73.78-32.16,110.66q-16.22,55.78-32.37,111.61c-.82,2.86-2,4-4.76,4q-42.6-.18-85.22,0c-2.84,0-3.91-1.28-4.71-4.12q-30.9-109.1-61.84-218.18c-2.48-8.81-7.26-13.9-15-15.76a93.74,93.74,0,0,1-9.48-2.5c-1.06-.38-2.56-1.92-2.57-2.95-.17-15.13-.12-30.27-.12-45.75h138v25.81c0,6-.14,11.95.06,17.91.1,3.06-.89,4.35-3.45,4.83-3.76.7-7.47,1.75-11.21,2.58-7.68,1.73-10.25,5.63-8.27,14.42,3.12,13.9,6.73,27.66,10.19,41.45q10.62,42.33,21.3,84.63c.3,1.22.71,2.4,1.51,5,.86-2.75,1.41-4.25,1.81-5.81q15.75-60.53,31.46-121.06a49.65,49.65,0,0,0,1.39-7.07c.69-6.37-1.79-10.15-7.32-11.42-4.43-1-8.9-1.84-13.27-3.12-1.12-.32-2.73-2.06-2.74-3.16C251,119.3,251,104.46,251,89.23Z" transform="translate(-17.34 -19.83)"/></svg>