<svg id="Layer_1" data-name="Layer 1" xmlns="http://www.w3.org/2000/svg" viewBox="0 0 936.62 180.74"><title>VOUCH</title><path d="M740,8.57h89V23.62c0,3.64-.11,7.28.05,10.92.09,2.07-.72,2.83-2.68,3.18-3.4.6-6.74,1.48-10.1,2.24-2.46.56-3.94,2.13-3.95,4.62-.05,10.06,0,20.12,0,30.17,0,.17.15.33.33.7.73,0,1.56.17,2.4.17,17.44,0,34.88,0,52.33,0,2.35,0,3.16-.61,3.12-3-.13-8.81,0-17.62-.06-26.44,0-4.08-1.07-5.39-5.12-6.39-3.25-.8-6.55-1.42-9.79-2.28-.75-.2-1.91-1-1.92-1.58-.12-9.07-.09-18.14-.09-27.38H943c.05.89.15,1.8.15,2.71,0,7.67-.06,15.33.05,23,0,2.05-.45,3.14-2.66,3.52-2.82.5-5.55,1.48-8.36,2.09s-4.23,2.38-4.27,5.25c0,.77,0,1.53,0,2.3v93.69c0,5.92.51,6.55,6.3,8,1.12.28,2.24.55,3.35.84,5.62,1.5,5.62,1.51,5.62,7.21,0,6.8,0,13.6,0,20.4,0,1.72-.29,2.6-2.33,2.59q-42.86-.09-85.69,0a11.46,11.46,0,0,1-1.32-.18,18.4,18.4,0,0,1-.26-2.19c0-8,0-15.9-.05-23.85,0-1.84.46-2.75,2.42-3.08,3.21-.54,6.37-1.37,9.53-2.15,3.86-.95,5-2.32,5-6.2,0-10.53,0-21.07,0-31.61,0-1.94-.54-2.69-2.59-2.68q-26.6.09-53.2,0c-1.81,0-2.53.49-2.51,2.43.08,10.83,0,21.65,0,32.48,0,3.4,1.23,4.78,4.61,5.57s6.74,1.44,10.07,2.35c.78.21,1.93,1.21,1.94,1.86.09,8.81,0,17.62,0,26.43,0,.16-.17.32-.36.66H740a11.92,11.92,0,0,1-.31-1.9c0-8.15,0-16.29-.06-24.43,0-1.82.7-2.5,2.39-2.85,2.81-.59,5.58-1.36,8.35-2.15,3.41-1,4.46-2.27,4.46-5.72q0-48.72,0-97.43c0-3.08-1.44-4.82-4.31-5.56s-6-1.42-8.88-2.38a3.2,3.2,0,0,1-1.91-2.18c-.13-8.62-.07-17.24,0-25.86A3.73,3.73,0,0,1,740,8.57Z" transform="translate(-6.6 -3.63)"/><path d="M283.62,4.43c15.08.13,29.79,2.27,43.72,8.36,21.79,9.53,36.57,25.65,43.77,48.24,7.55,23.65,7.28,47.44-1.55,70.72-8.75,23.08-25.3,38.61-48.67,46.32-26.15,8.63-52.54,8.48-78.3-1.42-27-10.36-43-30.65-49.07-58.61-4.43-20.24-3.67-40.44,3.6-60,10.08-27.11,30-43.42,57.76-50.12C264.22,5.68,274,5,283.49,3.63Zm-32,90.82c.13,10,.57,20.56,3.93,30.7,3.79,11.45,11.31,18.44,23.63,19.57a54.62,54.62,0,0,0,6.89.14c11.91-.44,20.67-5.82,24.61-17.24a83.07,83.07,0,0,0,4.21-19.26c1.33-14.52,1.35-29.1-2.48-43.36s-11.34-21.3-24.84-22.57c-16.39-1.55-26.88,4.75-32,20.3C252.21,73.67,251.73,84.19,251.61,95.25Z" transform="translate(-6.6 -3.63)"/><path d="M483.82,8.48h81c.07,1,.17,1.89.18,2.8,0,7.66-.08,15.33.06,23,0,2.27-.69,3.22-2.93,3.59-2.54.43-5,1.27-7.5,1.93-3.8,1-4.73,2.14-4.73,6,0,17.25,0,34.49,0,51.73,0,10.53.19,21.1-.48,31.59-1.78,27.75-15.86,44.84-42.91,51.15-24.75,5.78-49.7,5.64-74.13-1.92-23.67-7.33-36.64-24.66-38.2-50.11-.58-9.36-.38-18.77-.41-28.15-.05-17.82,0-35.64,0-53.45,0-5-.62-5.8-5.31-7-2.68-.71-5.4-1.28-8.05-2.11-.71-.23-1.71-1.16-1.72-1.78-.11-9-.07-18-.07-27.14h91V23c0,3.64-.15,7.29,0,10.92.13,2.44-.54,3.57-3.14,3.89-3.51.43-7,1.29-10.42,2.06-3.73.83-4.88,2.23-4.88,5.94,0,26.63-.07,53.26,0,79.89,0,10.91,5.34,17.11,16,19.2a47.07,47.07,0,0,0,21.38-.52c8.94-2.38,13.32-8.15,13.56-17.9.18-7.47.07-14.94.07-22.41q0-28.45,0-56.9c0-5.38-.81-6.41-6.15-7.57-3.36-.73-6.78-1.26-10.13-2.07-.79-.19-2-1.14-2-1.76C483.78,26.74,483.82,17.76,483.82,8.48Z" transform="translate(-6.6 -3.63)"/><path d="M6.6,8.56h93.55V23.87c0,3.55-.1,7.1,0,10.63.07,1.82-.6,2.58-2.33,2.86-2.55.42-5.07,1-7.6,1.54-5.21,1-7,3.34-5.61,8.56,2.11,8.24,4.56,16.4,6.91,24.59q7.2,25.11,14.43,50.2c.21.73.49,1.43,1,3,.58-1.63.95-2.53,1.23-3.45Q118.92,85.88,129.56,50a26.3,26.3,0,0,0,.95-4.2c.47-3.77-1.21-6-5-6.77-3-.61-6-1.09-9-1.85-.76-.19-1.85-1.22-1.86-1.88-.12-8.8-.08-17.6-.08-26.64h78.05V37.12c-3.4.69-6.75,1.49-10.13,2-4.06.64-6.37,2.86-7.64,6.76-7.2,21.91-14.53,43.77-21.8,65.65q-11,33.1-22,66.21c-.56,1.7-1.33,2.41-3.23,2.4q-28.87-.1-57.77,0c-1.93,0-2.65-.76-3.2-2.44Q46,113,25,48.29c-1.68-5.23-4.92-8.24-10.17-9.35-2.15-.45-4.33-.84-6.43-1.49-.71-.22-1.73-1.13-1.74-1.74C6.57,26.73,6.6,17.75,6.6,8.56Z" transform="translate(-6.6 -3.63)"/><path d="M726.75,8.42V68H688c-1.21-3.63-2.06-7.19-3.55-10.46-8-17.66-30.19-20.78-42.87-6.07-5.48,6.36-8.16,14-9.64,22.11-2.86,15.53-2.93,31.06,1,46.44a47.5,47.5,0,0,0,4,10.12c6.44,12.34,19.19,17.18,33.65,12.94a36.27,36.27,0,0,0,19-12.71,4.42,4.42,0,0,1,3-1.55c11.11-.1,22.23,0,33.35-.09,1.68,0,2.38.47,2.37,2.27-.06,10.73,0,21.46-.12,32.18a5,5,0,0,1-2.15,3.28c-8.68,5.82-18.28,9.63-28.31,12.35-22.59,6.14-45.35,7.24-68.17,1.42-33-8.43-55.45-33.74-60.26-67.49-2.73-19.11-1.91-37.89,5.11-56,10.26-26.45,30-42.14,57.18-48.88,12.9-3.21,26.08-4.88,39.29-2.28,7.39,1.45,14.58,3.94,21.81,6.15,4.14,1.27,7.72.94,10.73-2.43a2.29,2.29,0,0,1,1.4-.84C712.08,8.4,719.33,8.42,726.75,8.42Z" transform="translate(-6.6 -3.63)"/></svg>