<?xml version="1.0" encoding="UTF-8"?>
<svg width="937px" height="181px" viewBox="0 0 937 181" version="1.1" xmlns="http://www.w3.org/2000/svg" xmlns:xlink="http://www.w3.org/1999/xlink">
    <title>vouch-logo</title>
    <defs></defs>
    <g id="Page-1" stroke="none" stroke-width="1" fill="none" fill-rule="evenodd">
        <g id="vouch-logo" transform="translate(-1.000000, 0.000000)" fill-rule="nonzero" fill="#808000">
            <path d="M734.4,4.94 L823.4,4.94 L823.4,19.99 C823.4,23.63 823.29,27.27 823.45,30.91 C823.54,32.98 822.73,33.74 820.77,34.09 C817.37,34.69 814.03,35.57 810.67,36.33 C808.21,36.89 806.73,38.46 806.72,40.95 C806.67,51.01 806.72,61.07 806.72,71.12 C806.72,71.29 806.87,71.45 807.05,71.82 C807.78,71.82 808.61,71.99 809.45,71.99 L861.78,71.99 C864.13,71.99 864.94,71.38 864.9,68.99 C864.77,60.18 864.9,51.37 864.84,42.55 C864.84,38.47 863.77,37.16 859.72,36.16 C856.47,35.36 853.17,34.74 849.93,33.88 C849.18,33.68 848.02,32.88 848.01,32.3 C847.89,23.23 847.92,14.16 847.92,4.92 L937.4,4.92 C937.45,5.81 937.55,6.72 937.55,7.63 C937.55,15.3 937.49,22.96 937.6,30.63 C937.6,32.68 937.15,33.77 934.94,34.15 C932.12,34.65 929.39,35.63 926.58,36.24 C923.77,36.85 922.35,38.62 922.31,41.49 L922.31,43.79 L922.31,137.48 C922.31,143.4 922.82,144.03 928.61,145.48 C929.73,145.76 930.85,146.03 931.96,146.32 C937.58,147.82 937.58,147.83 937.58,153.53 L937.58,173.93 C937.58,175.65 937.29,176.53 935.25,176.52 C906.676667,176.46 878.113333,176.46 849.56,176.52 C849.116882,176.485647 848.676137,176.425546 848.24,176.34 C848.109624,175.615855 848.022801,174.884542 847.98,174.15 C847.98,166.15 847.98,158.25 847.93,150.3 C847.93,148.46 848.39,147.55 850.35,147.22 C853.56,146.68 856.72,145.85 859.88,145.07 C863.74,144.12 864.88,142.75 864.88,138.87 L864.88,107.26 C864.88,105.32 864.34,104.57 862.29,104.58 C844.556667,104.64 826.823333,104.64 809.09,104.58 C807.28,104.58 806.56,105.07 806.58,107.01 C806.66,117.84 806.58,128.66 806.58,139.49 C806.58,142.89 807.81,144.27 811.19,145.06 C814.57,145.85 817.93,146.5 821.26,147.41 C822.04,147.62 823.19,148.62 823.2,149.27 C823.29,158.08 823.2,166.89 823.2,175.7 C823.2,175.86 823.03,176.02 822.84,176.36 L734.4,176.36 C734.245609,175.736061 734.141938,175.100655 734.09,174.46 C734.09,166.31 734.09,158.17 734.03,150.03 C734.03,148.21 734.73,147.53 736.42,147.18 C739.23,146.59 742,145.82 744.77,145.03 C748.18,144.03 749.23,142.76 749.23,139.31 L749.23,41.88 C749.23,38.8 747.79,37.06 744.92,36.32 C742.05,35.58 738.92,34.9 736.04,33.94 C735.091879,33.5598381 734.382226,32.7498681 734.13,31.76 C734,23.14 734.06,14.52 734.13,5.9 C734.176624,5.56935717 734.267436,5.24647212 734.4,4.94 L734.4,4.94 Z" id="Shape"></path>
            <path d="M278.02,0.8 C293.1,0.93 307.81,3.07 321.74,9.16 C343.53,18.69 358.31,34.81 365.51,57.4 C373.06,81.05 372.79,104.84 363.96,128.12 C355.21,151.2 338.66,166.73 315.29,174.44 C289.14,183.07 262.75,182.92 236.99,173.02 C209.99,162.66 193.99,142.37 187.92,114.41 C183.49,94.17 184.25,73.97 191.52,54.41 C201.6,27.3 221.52,10.99 249.28,4.29 C258.62,2.05 268.4,1.37 277.89,0 L278.02,0.8 Z M246.02,91.62 C246.15,101.62 246.59,112.18 249.95,122.32 C253.74,133.77 261.26,140.76 273.58,141.89 C275.87143,142.08165 278.172676,142.12841 280.47,142.03 C292.38,141.59 301.14,136.21 305.08,124.79 C307.242879,118.559875 308.656163,112.094354 309.29,105.53 C310.62,91.01 310.64,76.43 306.81,62.17 C302.98,47.91 295.47,40.87 281.97,39.6 C265.58,38.05 255.09,44.35 249.97,59.9 C246.61,70.04 246.13,80.56 246.01,91.62 L246.02,91.62 Z" id="Shape"></path>
            <path d="M478.22,4.85 L559.22,4.85 C559.29,5.85 559.39,6.74 559.4,7.65 C559.4,15.31 559.32,22.98 559.46,30.65 C559.46,32.92 558.77,33.87 556.53,34.24 C553.99,34.67 551.53,35.51 549.03,36.17 C545.23,37.17 544.3,38.31 544.3,42.17 L544.3,93.9 C544.3,104.43 544.49,115 543.82,125.49 C542.04,153.24 527.96,170.33 500.91,176.64 C476.16,182.42 451.21,182.28 426.78,174.72 C403.11,167.39 390.14,150.06 388.58,124.61 C388,115.25 388.2,105.84 388.17,96.46 C388.12,78.64 388.17,60.82 388.17,43.01 C388.17,38.01 387.55,37.21 382.86,36.01 C380.18,35.3 377.46,34.73 374.81,33.9 C374.1,33.67 373.1,32.74 373.09,32.12 C372.98,23.12 373.02,14.12 373.02,4.98 L464.02,4.98 L464.02,19.37 C464.02,23.01 463.87,26.66 464.02,30.29 C464.15,32.73 463.48,33.86 460.88,34.18 C457.37,34.61 453.88,35.47 450.46,36.24 C446.73,37.07 445.58,38.47 445.58,42.18 C445.58,68.81 445.51,95.44 445.58,122.07 C445.58,132.98 450.92,139.18 461.58,141.27 C468.652164,142.739414 475.967634,142.561489 482.96,140.75 C491.9,138.37 496.28,132.6 496.52,122.85 C496.7,115.38 496.59,107.91 496.59,100.44 L496.59,43.54 C496.59,38.16 495.78,37.13 490.44,35.97 C487.08,35.24 483.66,34.71 480.31,33.9 C479.52,33.71 478.31,32.76 478.31,32.14 C478.18,23.11 478.22,14.13 478.22,4.85 Z" id="Shape"></path>
            <path d="M1,4.93 L94.55,4.93 L94.55,20.24 C94.55,23.79 94.45,27.34 94.55,30.87 C94.62,32.69 93.95,33.45 92.22,33.73 C89.67,34.15 87.15,34.73 84.62,35.27 C79.41,36.27 77.62,38.61 79.01,43.83 C81.12,52.07 83.57,60.23 85.92,68.42 C90.72,85.16 95.53,101.893333 100.35,118.62 C100.56,119.35 100.84,120.05 101.35,121.62 C101.93,119.99 102.3,119.09 102.58,118.17 C109.74,94.2233333 116.866667,70.29 123.96,46.37 C124.390938,44.9983211 124.708669,43.593614 124.91,42.17 C125.38,38.4 123.7,36.17 119.91,35.4 C116.91,34.79 113.91,34.31 110.91,33.55 C110.15,33.36 109.06,32.33 109.05,31.67 C108.93,22.87 108.97,14.07 108.97,5.03 L187.02,5.03 L187.02,33.49 C183.62,34.18 180.27,34.98 176.89,35.49 C172.83,36.13 170.52,38.35 169.25,42.25 C162.05,64.16 154.72,86.02 147.45,107.9 C140.116667,129.966667 132.783333,152.036667 125.45,174.11 C124.89,175.81 124.12,176.52 122.22,176.51 C102.973333,176.443333 83.7166667,176.443333 64.45,176.51 C62.52,176.51 61.8,175.75 61.25,174.07 C47.35,130.936667 33.4,87.8 19.4,44.66 C17.72,39.43 14.48,36.42 9.23,35.31 C7.08,34.86 4.9,34.47 2.8,33.82 C2.09,33.6 1.07,32.69 1.06,32.08 C0.97,23.1 1,14.12 1,4.93 Z" id="Shape"></path>
            <path d="M721.15,4.79 L721.15,64.37 L682.4,64.37 C681.19,60.74 680.34,57.18 678.85,53.91 C670.85,36.25 648.66,33.13 635.98,47.84 C630.5,54.2 627.82,61.84 626.34,69.95 C623.48,85.48 623.41,101.01 627.34,116.39 C628.281254,119.905427 629.623393,123.301037 631.34,126.51 C637.78,138.85 650.53,143.69 664.99,139.45 C672.527757,137.372053 679.192209,132.913885 683.99,126.74 C684.745452,125.846655 685.824273,125.289264 686.99,125.19 C698.1,125.09 709.22,125.19 720.34,125.1 C722.02,125.1 722.72,125.57 722.71,127.37 C722.65,138.1 722.71,148.83 722.59,159.55 C722.34992,160.890505 721.573443,162.075084 720.44,162.83 C711.76,168.65 702.16,172.46 692.13,175.18 C669.54,181.32 646.78,182.42 623.96,176.6 C590.96,168.17 568.51,142.86 563.7,109.11 C560.97,90 561.79,71.22 568.81,53.11 C579.07,26.66 598.81,10.97 625.99,4.23 C638.89,1.02 652.07,-0.65 665.28,1.95 C672.67,3.4 679.86,5.89 687.09,8.1 C691.23,9.37 694.81,9.04 697.82,5.67 C698.167613,5.22750364 698.665979,4.92848398 699.22,4.83 C706.48,4.77 713.73,4.79 721.15,4.79 Z" id="Shape"></path>
        </g>
    </g>
</svg>
