<svg id="Layer_1" data-name="Layer 1" xmlns="http://www.w3.org/2000/svg" xmlns:xlink="http://www.w3.org/1999/xlink" viewBox="0 0 957.54 290"><defs><style>.cls-1{fill:none;}.cls-2{clip-path:url(#clip-path);}</style><clipPath id="clip-path" transform="translate(-14.79 -10.19)"><rect class="cls-1" x="14.79" y="10.19" width="957.54" height="290"/></clipPath></defs><title>VOUCH_AGENCY</title><g class="cls-2"><path d="M289.76,267.24l-11.06-31.4-11.06,31.4Zm-51.8,31a2.36,2.36,0,0,1-.77-1.72,3.59,3.59,0,0,1,.11-1.07l28-76.37a4.26,4.26,0,0,1,1.55-2.38,4.75,4.75,0,0,1,3.09-.95h17.6a4.8,4.8,0,0,1,3.1.95,4.3,4.3,0,0,1,1.54,2.38L320,295.44l.24,1.07a2.37,2.37,0,0,1-.78,1.72,2.49,2.49,0,0,1-1.84.77H303a3.69,3.69,0,0,1-3.81-2.49l-4.64-12.14H262.76l-4.52,12.14a3.79,3.79,0,0,1-3.93,2.49H239.68a2.36,2.36,0,0,1-1.72-.77" transform="translate(-14.79 -10.19)"/><path d="M341.39,291.81q-9.64-8.38-10.23-23.85Q331,264.51,331,257t.12-10.94q.58-15.1,10.41-23.32t26.58-8.2a48.72,48.72,0,0,1,19.69,3.68q8.39,3.69,12.85,9.4a20.25,20.25,0,0,1,4.69,11.78,2.3,2.3,0,0,1-.77,1.78,2.59,2.59,0,0,1-1.84.71H385.4a4.24,4.24,0,0,1-1.9-.35,2.7,2.7,0,0,1-1.19-1.31,15.65,15.65,0,0,0-4.88-6c-2.22-1.7-5.31-2.56-9.28-2.56q-14.16,0-14.87,15-.12,3.33-.12,10.35t.12,10.35q.72,15.7,15.23,15.7,7,0,11.24-3.62T384,268.31v-2.26H372.79a2.77,2.77,0,0,1-2.14-.89,3.07,3.07,0,0,1-.83-2.2v-8.8a3.07,3.07,0,0,1,.83-2.2,2.78,2.78,0,0,1,2.14-.9h30a2.79,2.79,0,0,1,2.14.9,3.12,3.12,0,0,1,.83,2.2v13.56a31.81,31.81,0,0,1-4.64,17.43A29.67,29.67,0,0,1,388,296.33a47.57,47.57,0,0,1-19.81,3.86q-17.13,0-26.76-8.38" transform="translate(-14.79 -10.19)"/><path d="M426.26,298.11a2.86,2.86,0,0,1-.89-2.08V218.71a2.81,2.81,0,0,1,.89-2.14,2.92,2.92,0,0,1,2.08-.83h55.55a2.86,2.86,0,0,1,3,3v11.18A2.93,2.93,0,0,1,486,232a2.76,2.76,0,0,1-2.14.89H446v16.06h35.33a2.79,2.79,0,0,1,2.14.9,3.1,3.1,0,0,1,.83,2.2v10.35a3,3,0,0,1-.83,2.08,2.82,2.82,0,0,1-2.14.89H446v16.53h38.9a2.86,2.86,0,0,1,3,3V296a3,3,0,0,1-.83,2.08,2.79,2.79,0,0,1-2.14.89H428.34a2.82,2.82,0,0,1-2.08-.89" transform="translate(-14.79 -10.19)"/><path d="M508.22,298.11a2.82,2.82,0,0,1-.89-2.08V218.71a2.77,2.77,0,0,1,.89-2.14,2.92,2.92,0,0,1,2.08-.83h12.61a4,4,0,0,1,4,2.26l29,45.67v-45a2.81,2.81,0,0,1,.89-2.14,2.94,2.94,0,0,1,2.08-.83h14.28a2.84,2.84,0,0,1,3,3v77.2a3.12,3.12,0,0,1-.83,2.2,2.79,2.79,0,0,1-2.14.89H560.5a4.25,4.25,0,0,1-3.93-2.26l-29-44V296a3,3,0,0,1-.83,2.08,2.79,2.79,0,0,1-2.15.89H510.3a2.82,2.82,0,0,1-2.08-.89" transform="translate(-14.79 -10.19)"/><path d="M606.36,291.93q-9.58-8.28-10.17-24-.12-3.21-.12-10.47t.12-10.71q.59-15.47,10.34-23.85t26.41-8.38a48.2,48.2,0,0,1,18.8,3.5,30.9,30.9,0,0,1,13.14,10,25.35,25.35,0,0,1,4.94,15.16v.24a2,2,0,0,1-.78,1.61,2.62,2.62,0,0,1-1.72.65H651.26a3.83,3.83,0,0,1-2.38-.65,5.22,5.22,0,0,1-1.43-2.44q-1.66-6.08-5.23-8.51a16.41,16.41,0,0,0-9.4-2.43q-14,0-14.51,15.7-.12,3.21-.12,9.87t.12,10.11q.48,15.7,14.51,15.7a16.39,16.39,0,0,0,9.52-2.55q3.69-2.56,5.11-8.39a4.59,4.59,0,0,1,1.31-2.44,4.06,4.06,0,0,1,2.5-.65h16.06a2.59,2.59,0,0,1,1.84.71,2,2,0,0,1,.66,1.79,25.35,25.35,0,0,1-4.94,15.16,30.81,30.81,0,0,1-13.14,10,48,48,0,0,1-18.8,3.51q-17,0-26.58-8.26" transform="translate(-14.79 -10.19)"/><path d="M708.18,298.11a2.86,2.86,0,0,1-.89-2.08V270.45l-27.6-50.91a6.1,6.1,0,0,1-.35-1.31,2.37,2.37,0,0,1,.77-1.72,2.49,2.49,0,0,1,1.84-.77h14.87a5.07,5.07,0,0,1,4.16,2.49l17,30.69,17.12-30.69a4.55,4.55,0,0,1,4.17-2.49h14.87a2.3,2.3,0,0,1,1.78.77,2.48,2.48,0,0,1,.72,1.72,4.1,4.1,0,0,1-.24,1.31l-27.6,50.91V296a2.81,2.81,0,0,1-.89,2.14,3.09,3.09,0,0,1-2.2.83H710.26a2.84,2.84,0,0,1-2.08-.89" transform="translate(-14.79 -10.19)"/><path d="M123.46,14.14h78.79V43l-12.1,2.47c-2.72.74-4.7,2.72-5.93,6.18L139.27,187h-63L33.56,55.39C32.08,49.46,28.38,46,22.45,44.77L14.79,43V14.14h94.1V42.79L97,45.26c-4,1-5.19,4.2-3.46,9.88l22.23,77.31,23-77.31c1.72-5.68.74-8.89-3-9.88l-12.35-2.47Z" transform="translate(-14.79 -10.19)"/><path d="M265,101.33c0,37.79,10.62,51.12,32.36,51.12s32.1-13.33,32.1-51.12c0-38.28-10.62-52.36-32.1-52.36C275.6,49,265,63.05,265,101.33M297.34,191c-29.15,0-52.12-8.15-68.66-24.7S204,128,204,100.59s8.15-49.15,24.7-65.7,39.51-24.7,68.66-24.7,51.86,8.15,68.41,24.7,24.7,38.28,24.7,65.7-8.15,49.15-24.7,65.69S326.48,191,297.34,191" transform="translate(-14.79 -10.19)"/><path d="M502.33,14.14h81.75V43l-10.62,2.72c-3.21.49-4.69,2.22-4.69,5.18v76.57c0,44.21-24.95,63.47-77.31,63.47-52.6,0-79.77-19.76-79.77-63.47V50.94c0-3-1.48-4.69-4.69-5.18L396.38,43V14.14H488V43l-13.84,2.72c-3.21.74-4.69,2.47-4.69,5.18v80.77c0,13.83,8.65,20.74,25.69,20.74,18,0,25.68-6.91,25.68-20.74V50.94c0-2.71-1.73-4.44-4.94-5.18L502.33,43Z" transform="translate(-14.79 -10.19)"/><path d="M752.27,171.72q-7,5.92-25.93,12.59-18.52,6.67-43,6.67c-28.64,0-51.37-8.15-67.91-24.2-16.55-16.3-24.7-38.29-24.7-66.19s8.4-49.89,24.94-65.95q25.2-24.45,68.17-24.45c6.67,0,14.08,1.48,22.72,4.2s13.34,3.95,14.08,3.95a7.73,7.73,0,0,0,7.16-4.2h23V74.41H711.27c-2.22-14.82-11.36-26.18-25.93-26.18-19.76,0-32.11,17.78-32.11,53.1,0,33.83,11.86,49.89,30.63,49.89,12.84,0,24.7-6.67,30.38-15.81h38Z" transform="translate(-14.79 -10.19)"/><path d="M961.71,45.76C958.5,46.25,957,48,957,50.94v99.29c0,3,1.48,4.69,4.69,5.19l10.62,2.71V187H882.18v-28.9l12.1-2.71c3.22-.75,4.94-2.47,4.94-5.19V114.66H840.69v35.57c0,3,1.48,4.69,4.69,5.19l12.11,2.71V187h-89.9v-28.9l10.62-2.71c3.21-.75,4.69-2.47,4.69-5.19V50.94c0-2.71-1.48-4.44-4.69-5.18L767.59,43V14.14h89.9V43l-12.11,2.72c-3.21.49-4.69,2.22-4.69,5.18V81.82h58.53V50.94c0-2.71-1.72-4.44-4.94-5.18L882.18,43V14.14h90.15V43Z" transform="translate(-14.79 -10.19)"/></g></svg>